# xmcd CD database file
#
# Track frame offsets:
#	150
#	27565
#	38431
#	68219
#	81739
#	107886
#	125731
#	132037
#	146725
#	169702
#	193110
#	214128
#	223619
#
# Disc length: 3141 seconds
#
# Revision: 0
# Processed by: cddbd v1.5.2PL0 Copyright (c) Steve Scherf et al.
# Submitted via: CDex 1.51
#
DISCID=cb0c430d
DTITLE=KOJ and Louis Sclavis - Piffkaneiro
DYEAR=2009
DGENRE=Jazz
TTITLE0=Ankunft in Piffkaneiro
TTITLE1=Bericht aus der Stadt
TTITLE2=Spartakus schmiedet einen Plan im Feuerschein
TTITLE3=Au Bordel
TTITLE4=La muse malade
TTITLE5=La foire des dingues
TTITLE6=La chapelle engloutie
TTITLE7=Les Temps perdues
TTITLE8=L'orgue de barbarie
TTITLE9=Komm süßer Tod
TTITLE10=Mirabeau
TTITLE11=Die Reihen lichten sich
TTITLE12=Vision
EXTD=YEAR: 2009
EXTT0=
EXTT1=
EXTT2=
EXTT3=
EXTT4=
EXTT5=
EXTT6=
EXTT7=
EXTT8=
EXTT9=
EXTT10=
EXTT11=
EXTT12=
PLAYORDER=
